<svg width="" height="" viewBox="0 0 224 108" fill="none" xmlns="http://www.w3.org/2000/svg">
    <path d="M24.63 0.5L19.04 16.27L13.54 0.5H0.18V32.99H9.37V13.81L16.63 32.99H20.09L27.49 13.81V32.99H37.72V0.5H24.63Z" fill="white" />
    <path d="M66.08 16.91V16.54C66.08 11.04 63.44 8.04 59.35 8.04C55.26 8.04 52.76 11.04 52.76 16.54V16.91C52.76 22.45 55.35 25.49 59.44 25.49C63.53 25.49 66.08 22.31 66.08 16.91V16.91ZM42 17V16.64C42 6.54 49.63 0 59.35 0C69.35 0 76.8 6 76.8 16.31V16.68C76.8 26.81 69.8 33.58 59.17 33.58C48.54 33.58 42 26.81 42 17Z" fill="white" />
    <path d="M78.44 22.59H88.2C88.39 24.59 89.39 26.31 92.75 26.31C95.16 26.31 96.34 25.22 96.34 23.63C96.34 22.04 95.21 21.35 91.71 20.86C82.34 19.86 79.16 17.09 79.16 10.4C79.16 4.4 84.07 0.0400009 92.16 0.0400009C100.25 0.0400009 104.7 3.31 105.25 10.4H95.7C95.6943 9.955 95.5956 9.51611 95.4102 9.11154C95.2247 8.70698 94.9567 8.34569 94.6233 8.0509C94.2899 7.75611 93.8985 7.53434 93.4743 7.39986C93.05 7.26537 92.6024 7.22114 92.16 7.27C90.02 7.27 88.93 8.27 88.93 9.63C88.93 10.99 89.93 11.91 93.48 12.36C101.66 13.22 106.2 15.36 106.2 22.54C106.2 28.54 101.48 33.54 92.75 33.54C83.57 33.54 78.66 29.86 78.44 22.54" fill="white" />
    <path d="M108.52 17V16.64C108.52 6.64 115.75 0.0499992 125.33 0.0499992C134.11 0.0499992 140.01 4.05 140.78 12.86H130.15C129.84 9.86 128.24 8.18 125.38 8.18C121.65 8.18 119.38 11.09 119.38 16.59V16.95C119.38 22.36 121.56 25.36 125.56 25.36C128.47 25.36 130.56 23.86 130.93 20.59H141.19C140.65 29.13 134.37 33.59 125.79 33.59C114.07 33.59 108.52 26.91 108.52 16.96" fill="white" />
    <path d="M167.28 16.91V16.54C167.28 11.04 164.64 8.04 160.55 8.04C156.46 8.04 154 11 154 16.54V16.91C154 22.45 156.6 25.49 160.68 25.49C164.76 25.49 167.32 22.31 167.32 16.91H167.28ZM143.23 16.91V16.55C143.23 6.55 150.87 -0.0400009 160.59 -0.0400009C170.55 -9.16421e-07 178 6 178 16.31V16.68C178 26.81 171.05 33.58 160.37 33.58C149.69 33.58 143.19 26.81 143.19 17" fill="white" />
    <path d="M213.9 0.5L209.95 20.13L205.54 0.5H196.59L192.69 19.9L188.95 0.5H178.55L186.09 32.99H196.36L200.95 13.59L205.49 32.99H215.9L223.45 0.5H213.9Z" fill="white" />
    <path d="M0 56.78V37.69H10.27V56.37C10.27 60.6 11.18 62.69 14.86 62.69C18.54 62.69 19.41 60.6 19.41 56.33V37.69H29.77V56.69C29.77 66.46 23.95 70.78 14.86 70.78C5.36 70.78 0 66.05 0 56.78Z" fill="white" />
    <path d="M47.12 52.42C49.99 52.42 51.35 51.24 51.35 48.87V48.69C51.35 46.33 49.94 45.42 47.17 45.42H44.71V52.42H47.12ZM34.44 37.69H47.71C56.71 37.69 61.3 41.28 61.3 48.24V48.42C61.3954 50.2356 60.915 52.0349 59.9274 53.5613C58.9397 55.0876 57.4952 56.2631 55.8 56.92L63.21 70.19H52.39L46.39 59.05H44.71V70.19H34.44V37.69Z" fill="white" />
    <path d="M81.2 63.42C83.83 63.42 85.06 62.19 85.06 60.01V59.83C85.06 57.69 83.88 56.51 80.97 56.51H77.97V63.42H81.2ZM81.06 50.37C83.61 50.37 84.6 49.51 84.6 47.51V47.33C84.6 45.38 83.6 44.42 81.02 44.42H77.92V50.37H81.06ZM67.88 37.69H83.24C91.24 37.69 94.33 41.38 94.33 46.19V46.38C94.33 50.15 92.33 52.51 88.69 53.38C92.51 54.06 95.19 56.43 95.19 60.97V61.16C95.19 66.92 91.51 70.16 83.19 70.16H67.88V37.69Z" fill="white" />
    <path d="M112.86 57.78H119.27L116.09 46L112.86 57.78ZM110.09 37.69H123.41L133.59 70.19H122.68L121.18 64.77H110.91L109.46 70.19H99.87L110.09 37.69Z" fill="white" />
    <path d="M138.26 37.7H149.8L159.03 54.88V37.7H168.07V70.19H158.21L147.35 50.73V70.19H138.26V37.7Z" fill="white" />
    <path d="M0.18 74.89V107.39H10.5V96.48H20.32V88.88H10.5V82.84H22.68V74.89H0.18Z" fill="white" />
    <path d="M48.67 91.29V90.93C48.67 85.43 46.03 82.44 41.94 82.44C37.85 82.44 35.35 85.38 35.35 90.93V91.29C35.35 96.84 37.95 99.88 42.04 99.88C46.13 99.88 48.67 96.7 48.67 91.29V91.29ZM24.59 91.29V91C24.59 81 32.22 74.41 41.94 74.41C51.94 74.41 59.4 80.41 59.4 90.73V91.09C59.4 101.22 52.4 108 41.76 108C31.12 108 24.59 101.2 24.59 91.34" fill="white" />
    <path d="M76.26 89.62C79.12 89.62 80.48 88.44 80.48 86.07V85.89C80.48 83.53 79.07 82.62 76.3 82.62H73.85V89.62H76.26ZM63.57 74.89H76.85C85.85 74.89 90.44 78.48 90.44 85.43V85.62C90.5333 87.4339 90.0519 89.231 89.0644 90.7553C88.0768 92.2797 86.6335 93.4537 84.94 94.11L92.34 107.38H81.53L75.53 96.25H73.85V107.38H63.57V74.89Z" fill="white" />
    <path d="M95 94V74.89H105.27V93.56C105.27 97.8 106.17 99.88 109.86 99.88C113.55 99.88 114.4 97.8 114.4 93.53V74.89H124.76V93.89C124.76 103.66 118.95 107.98 109.86 107.98C100.34 108 95 103.25 95 94Z" fill="white" />
    <path d="M154.87 74.89L149.28 90.66L143.78 74.89H130.42V107.39H139.6V88.2L146.87 107.39H150.33L157.73 88.2V107.39H167.96V74.89H154.87Z" fill="white" />
</svg>